<?xml version="1.0" standalone="no"?>
<!DOCTYPE svg PUBLIC "-//W3C//DTD SVG 20010904//EN"
 "http://www.w3.org/TR/2001/REC-SVG-20010904/DTD/svg10.dtd">
<svg version="1.0" xmlns="http://www.w3.org/2000/svg"
 width="996.000000pt" height="238.000000pt" viewBox="0 0 996.000000 238.000000"
 preserveAspectRatio="xMidYMid meet">

<g transform="translate(0.000000,238.000000) scale(0.100000,-0.100000)"
fill="#000000" stroke="none">
<path d="M246 2255 c-57 -20 -108 -66 -138 -125 l-28 -52 0 -887 0 -886 24
-50 c12 -28 40 -65 61 -84 81 -70 15 -66 990 -66 823 0 883 1 927 18 56 22
129 97 149 153 12 32 14 193 14 919 0 817 -1 883 -17 917 -28 58 -78 109 -133
134 l-50 24 -880 -1 c-722 0 -887 -2 -919 -14z m1582 -491 c97 -48 143 -181
94 -274 -23 -45 -663 -903 -710 -952 -91 -96 -247 -82 -324 27 -33 47 -43 95
-34 160 6 40 49 101 348 503 187 251 355 472 372 491 68 73 164 90 254 45z
m-1150 -520 c175 -73 175 -325 0 -398 -142 -60 -298 48 -298 204 0 76 66 169
140 199 38 15 116 13 158 -5z"/>
<path d="M2900 1690 l0 -400 75 0 75 0 1 348 c0 213 4 339 9 327 5 -11 37
-159 70 -330 34 -170 63 -318 66 -327 5 -16 20 -18 129 -18 109 0 124 2 129
18 3 9 32 157 66 327 33 171 65 319 70 330 5 12 9 -114 9 -327 l1 -348 80 0
80 0 -2 398 -3 397 -142 3 c-79 1 -143 1 -143 0 -5 -56 -139 -682 -145 -681
-7 1 -133 594 -145 681 0 1 -63 2 -140 2 l-140 0 0 -400z"/>
<path d="M4970 1945 c0 -136 -6 -167 -27 -131 -19 34 -85 60 -152 60 -86 0
-127 -15 -180 -66 -68 -64 -86 -114 -86 -233 0 -84 4 -108 24 -148 47 -96 128
-148 230 -149 73 -1 120 15 156 52 32 34 45 31 45 -11 l0 -29 70 0 70 0 0 400
0 400 -75 0 -75 0 0 -145z m-65 -224 c46 -26 68 -72 68 -145 0 -37 -7 -74 -17
-93 -47 -93 -203 -98 -261 -10 -21 33 -29 113 -16 163 25 95 135 136 226 85z"/>
<path d="M5910 2025 l0 -65 50 0 50 0 0 -265 0 -265 -50 0 -50 0 0 -70 0 -70
228 0 c255 0 301 8 364 60 63 52 86 166 49 245 -20 43 -40 64 -84 87 l-29 14
42 28 c60 39 80 78 80 154 0 78 -17 120 -64 159 -59 48 -92 53 -350 53 l-236
0 0 -65z m472 -103 c34 -33 31 -97 -5 -128 -25 -21 -38 -24 -118 -24 l-89 0 0
91 0 91 95 -4 c82 -3 97 -6 117 -26z m-19 -314 c33 -17 46 -39 47 -78 0 -72
-47 -100 -172 -100 l-68 0 0 95 0 95 86 0 c47 0 95 -5 107 -12z"/>
<path d="M7390 1690 l0 -400 75 0 75 0 0 345 c0 190 3 345 8 345 4 0 38 -155
76 -345 l69 -345 127 0 127 0 69 345 c38 190 72 345 76 345 5 0 8 -155 8 -345
l0 -345 75 0 75 0 0 400 0 400 -143 0 -142 0 -69 -345 c-38 -190 -72 -345 -76
-345 -4 0 -38 155 -76 345 l-69 345 -142 0 -143 0 0 -400z"/>
<path d="M4067 1869 c-81 -16 -151 -72 -171 -136 -6 -19 0 -23 61 -44 55 -18
68 -19 72 -8 2 8 17 26 32 41 22 22 37 28 72 28 60 0 75 -7 92 -41 33 -62 27
-66 -98 -71 -95 -3 -122 -8 -163 -29 -67 -33 -94 -76 -94 -148 1 -118 73 -181
207 -181 84 0 119 14 156 61 l25 32 13 -29 c19 -39 53 -54 127 -54 l62 0 0 60
c0 57 -1 60 -24 60 -50 0 -56 19 -56 171 0 153 -8 186 -56 231 -56 53 -162 76
-257 57z m168 -349 c13 -21 -16 -79 -49 -100 -40 -24 -112 -27 -144 -4 -44 30
-21 96 38 107 49 9 149 7 155 -3z"/>
<path d="M5462 1870 c-124 -26 -212 -145 -212 -286 0 -186 108 -305 277 -306
103 0 146 15 209 76 30 29 54 57 54 63 0 6 -25 25 -56 42 l-56 30 -37 -39
c-35 -37 -42 -40 -92 -40 -67 0 -114 27 -135 75 -8 19 -14 37 -14 40 0 3 93 5
206 5 l207 0 -5 78 c-5 87 -27 140 -80 192 -61 62 -170 90 -266 70z m164 -162
c12 -13 25 -33 29 -45 6 -23 6 -23 -119 -23 -114 0 -126 2 -126 18 0 25 46 71
78 78 15 3 32 7 37 8 23 6 80 -14 101 -36z"/>
<path d="M8578 1867 c-140 -40 -221 -170 -204 -330 8 -76 34 -134 81 -182 58
-57 105 -75 206 -75 106 0 171 28 224 98 l35 45 -29 18 c-87 53 -85 53 -129 9
-36 -36 -44 -40 -92 -40 -66 0 -108 24 -131 75 l-18 40 204 3 205 2 0 64 c0
114 -47 200 -137 248 -60 33 -149 43 -215 25z m175 -167 c49 -55 42 -60 -98
-60 -140 0 -147 5 -97 61 50 56 144 56 195 -1z"/>
<path d="M6692 1647 l3 -214 30 -49 c18 -29 47 -58 70 -71 83 -46 201 -38 257
18 16 16 31 29 34 29 2 0 4 -36 4 -79 0 -63 -3 -80 -16 -85 -9 -3 -85 -6 -170
-6 l-155 0 3 -62 3 -63 202 0 c189 0 203 1 230 21 52 39 53 43 53 422 l0 352
-75 0 -75 0 0 -167 c0 -191 -13 -238 -69 -267 -61 -32 -146 -13 -169 39 -8 17
-12 89 -12 210 l0 185 -76 0 -75 0 3 -213z"/>
<path d="M3767 562 c-51 -51 -56 -62 -31 -62 14 0 144 97 144 107 0 2 -15 3
-33 3 -26 0 -43 -10 -80 -48z"/>
<path d="M3047 589 c-58 -14 -92 -35 -131 -81 -41 -47 -56 -91 -56 -163 0 -73
17 -121 57 -166 55 -61 105 -83 188 -83 59 0 78 4 118 27 25 15 52 37 58 48
12 23 13 22 -19 38 -20 11 -27 9 -49 -13 -74 -75 -204 -50 -260 49 -30 52 -31
140 -3 194 51 101 176 129 257 58 31 -27 36 -29 58 -17 31 17 31 21 -2 55 -50
50 -141 73 -216 54z"/>
<path d="M5120 345 l0 -245 146 0 145 0 -3 28 -3 27 -112 3 -113 3 0 214 0
215 -30 0 -30 0 0 -245z"/>
<path d="M7349 348 l97 -243 41 -3 40 -3 97 238 c53 131 96 242 96 246 0 5
-16 7 -37 5 l-36 -3 -76 -197 c-42 -109 -79 -198 -82 -198 -4 0 -18 30 -32 68
-14 37 -48 127 -77 200 l-52 132 -38 0 -38 0 97 -242z"/>
<path d="M8840 505 l0 -85 -32 20 c-40 24 -116 26 -158 5 -72 -37 -103 -178
-58 -264 33 -64 68 -86 133 -86 40 0 61 6 84 23 30 22 31 22 31 2 0 -16 7 -20
30 -20 l30 0 0 245 0 245 -30 0 -30 0 0 -85z m-24 -126 c22 -20 24 -31 24
-106 0 -83 0 -83 -32 -103 -18 -11 -50 -20 -71 -20 -73 0 -121 82 -97 167 12
46 18 54 50 77 33 23 94 16 126 -15z"/>
<path d="M5493 573 c-16 -6 -17 -59 -2 -68 21 -14 59 5 59 28 0 37 -24 54 -57
40z"/>
<path d="M6000 505 c0 -43 -1 -45 -30 -45 -27 0 -30 -3 -30 -30 0 -27 3 -30
30 -30 l30 0 0 -132 c0 -73 4 -138 8 -144 34 -51 144 -39 128 14 -6 17 -12 20
-36 15 -25 -5 -31 -2 -40 21 -5 15 -10 72 -10 126 l0 99 38 3 c32 3 37 6 37
28 0 22 -5 25 -37 28 -38 3 -38 4 -38 48 0 40 -2 44 -25 44 -23 0 -25 -4 -25
-45z"/>
<path d="M3367 453 c-4 -3 -7 -84 -7 -180 l0 -173 30 0 30 0 0 124 0 124 31
26 c18 15 43 26 60 26 26 0 29 4 29 30 0 25 -4 30 -23 30 -12 0 -39 -11 -60
-25 l-37 -26 0 26 c0 20 -5 25 -23 25 -13 0 -27 -3 -30 -7z"/>
<path d="M3667 438 c-44 -26 -87 -104 -87 -157 1 -45 22 -106 47 -133 24 -28
91 -58 128 -58 42 0 100 17 126 38 18 16 20 22 10 40 l-12 22 -29 -22 c-21
-15 -45 -22 -81 -22 -46 -1 -54 2 -85 36 -19 21 -34 47 -34 58 0 19 6 20 141
20 l142 0 -7 43 c-10 59 -37 108 -76 135 -45 30 -130 30 -183 0z m156 -48 c25
-20 50 -73 40 -84 -4 -3 -53 -6 -110 -6 -111 0 -118 4 -92 53 32 58 112 76
162 37z"/>
<path d="M4077 438 c-44 -26 -87 -104 -87 -157 1 -45 22 -106 47 -133 24 -28
91 -58 128 -58 42 0 100 17 126 38 18 16 20 22 10 40 l-12 22 -29 -22 c-21
-15 -45 -22 -81 -22 -46 -1 -54 2 -85 36 -19 21 -34 47 -34 58 0 19 6 20 141
20 l142 0 -7 43 c-10 59 -37 108 -76 135 -45 30 -130 30 -183 0z m156 -48 c25
-20 50 -73 40 -84 -4 -3 -53 -6 -110 -6 -111 0 -118 4 -92 53 32 58 112 76
162 37z"/>
<path d="M4407 453 c-4 -3 -7 -17 -7 -30 0 -22 2 -23 95 -23 l95 0 -95 -127
c-54 -73 -95 -138 -95 -150 0 -23 2 -23 135 -23 l135 0 0 25 c0 25 -1 25 -90
25 -49 0 -90 3 -90 6 0 4 41 62 90 130 59 79 90 131 90 148 l0 26 -128 0 c-71
0 -132 -3 -135 -7z"/>
<path d="M5487 453 c-4 -3 -7 -84 -7 -180 l0 -173 30 0 30 0 0 180 0 180 -23
0 c-13 0 -27 -3 -30 -7z"/>
<path d="M5678 444 c-35 -18 -48 -43 -48 -88 0 -49 25 -71 109 -96 89 -27 106
-40 98 -72 -13 -52 -105 -61 -162 -16 -27 21 -28 21 -41 3 -20 -27 -18 -33 18
-55 68 -41 168 -37 218 10 24 22 30 36 30 69 0 55 -30 85 -106 106 -93 25
-104 32 -104 59 0 48 86 63 146 26 l33 -21 11 21 c14 26 9 34 -34 54 -42 20
-132 20 -168 0z"/>
<path d="M6271 443 c-94 -46 -120 -198 -49 -289 26 -32 91 -63 133 -64 42 0
100 17 125 38 19 16 21 21 10 38 -12 20 -13 20 -61 -4 -36 -18 -57 -23 -83
-18 -43 8 -96 59 -96 91 l0 24 137 3 138 3 -3 40 c-5 55 -44 119 -86 139 -44
21 -121 20 -165 -1z m158 -64 c18 -17 31 -41 31 -55 0 -24 -1 -24 -105 -24
-104 0 -105 0 -105 24 0 14 13 38 31 55 25 25 39 31 74 31 35 0 49 -6 74 -31z"/>
<path d="M6590 430 l0 -30 90 0 c50 0 90 -2 90 -5 0 -3 -40 -59 -90 -126 -56
-74 -90 -129 -90 -145 l0 -24 135 0 135 0 0 25 c0 24 -2 24 -94 27 l-94 3 94
128 c59 80 94 137 94 152 l0 25 -135 0 -135 0 0 -30z"/>
<path d="M7851 443 c-94 -46 -120 -198 -49 -289 26 -32 91 -63 133 -64 42 0
100 17 125 38 19 16 21 21 10 38 -12 20 -13 20 -61 -4 -36 -18 -57 -23 -83
-18 -43 8 -96 59 -96 91 l0 24 137 3 138 3 -3 40 c-5 55 -44 119 -86 139 -44
21 -121 20 -165 -1z m158 -64 c18 -17 31 -41 31 -55 0 -24 -1 -24 -105 -24
-104 0 -105 0 -105 24 0 14 13 38 31 55 25 25 39 31 74 31 35 0 49 -6 74 -31z"/>
<path d="M8197 453 c-4 -3 -7 -84 -7 -180 l0 -173 30 0 30 0 0 128 c0 123 1
130 24 151 34 32 95 38 126 13 23 -19 25 -26 28 -156 l4 -137 27 3 c26 3 26 4
29 93 8 211 -15 265 -112 265 -32 0 -65 -7 -89 -20 l-37 -20 0 20 c0 14 -7 20
-23 20 -13 0 -27 -3 -30 -7z"/>
<path d="M9085 448 c-65 -36 -97 -90 -98 -167 -1 -157 150 -240 286 -158 35
22 36 23 21 45 l-15 22 -27 -20 c-63 -46 -143 -32 -182 33 -35 56 -33 57 121
57 l142 0 -7 47 c-13 98 -72 153 -165 153 -31 0 -65 -6 -76 -12z m133 -54 c22
-15 52 -63 52 -84 0 -6 -40 -10 -110 -10 -105 0 -110 1 -110 21 0 12 15 36 34
55 27 27 42 34 73 34 21 0 49 -7 61 -16z"/>
<path d="M9400 431 l0 -30 91 -3 90 -3 -90 -120 c-62 -82 -91 -129 -91 -147
l0 -28 135 0 135 0 0 25 c0 24 -1 24 -95 27 l-96 3 96 130 c59 81 95 138 93
150 -3 19 -12 20 -135 23 l-133 3 0 -30z"/>
<path d="M4768 169 c-32 -18 -19 -66 20 -74 40 -7 62 54 28 77 -15 10 -28 9
-48 -3z"/>
<path d="M6952 168 c-34 -34 6 -90 48 -68 35 19 20 80 -20 80 -9 0 -21 -5 -28
-12z"/>
<path d="M9756 164 c-21 -20 -20 -37 2 -56 28 -25 71 -8 72 29 0 16 -28 43
-45 43 -7 0 -21 -7 -29 -16z"/>
</g>
</svg>
